<?xml version="1.0" encoding="utf-8"?>
<!-- Generator: Adobe Illustrator 28.0.0, SVG Export Plug-In . SVG Version: 6.00 Build 0)  -->
<svg version="1.1" id="圖層_1" xmlns="http://www.w3.org/2000/svg" xmlns:xlink="http://www.w3.org/1999/xlink" x="0px" y="0px"
	 viewBox="0 0 24 24" style="enable-background:new 0 0 24 24;" xml:space="preserve">
<style type="text/css">
	.st0{fill:#D1CDC7;fill-opacity:0.5;}
</style>
<path class="st0" d="M11.1,2.5c0.4-0.8,1.5-0.8,1.8,0l2.5,5c0.1,0.3,0.4,0.5,0.8,0.6l5.5,0.8c0.8,0.1,1.2,1.2,0.6,1.7l-4,3.9
	c-0.2,0.2-0.4,0.6-0.3,0.9l0.9,5.5c0.1,0.8-0.7,1.5-1.5,1.1l-4.9-2.6c-0.3-0.2-0.7-0.2-1,0l-4.9,2.6c-0.8,0.4-1.6-0.2-1.5-1.1
	l0.9-5.5C6.1,15,6,14.7,5.8,14.5l-4-3.9C1.2,10,1.5,9,2.4,8.9l5.5-0.8c0.3,0,0.6-0.3,0.8-0.6L11.1,2.5z"/>
</svg>
