<?xml version="1.0" encoding="utf-8"?>
<!-- Generator: Adobe Illustrator 28.0.0, SVG Export Plug-In . SVG Version: 6.00 Build 0)  -->
<svg version="1.1" id="圖層_1" xmlns="http://www.w3.org/2000/svg" xmlns:xlink="http://www.w3.org/1999/xlink" x="0px" y="0px"
	 viewBox="0 0 30 29" style="enable-background:new 0 0 30 29;" xml:space="preserve">
<style type="text/css">
	.st0{fill:url(#SVGID_1_);}
	.st1{fill:none;stroke:#8F7A4A;stroke-width:0.5;}
</style>
<g>
	
		<linearGradient id="SVGID_1_" gradientUnits="userSpaceOnUse" x1="14.9998" y1="27.0689" x2="14.9998" y2="1.9897" gradientTransform="matrix(1 0 0 -1 0 30)">
		<stop  offset="0" style="stop-color:#F9E6B3"/>
		<stop  offset="1" style="stop-color:#C5A059"/>
	</linearGradient>
	<path class="st0" d="M14.1,4.8c0.4-0.8,1.5-0.8,1.9,0l2.5,5.1c0.2,0.3,0.4,0.5,0.8,0.6l5.6,0.8c0.9,0.1,1.2,1.2,0.6,1.8l-4.1,4
		c-0.2,0.2-0.4,0.6-0.3,0.9l1,5.6c0.1,0.9-0.8,1.5-1.5,1.1l-5-2.6c-0.3-0.2-0.7-0.2-1,0l-5,2.6C8.7,25,7.8,24.4,8,23.5l1-5.6
		C9,17.6,8.9,17.3,8.6,17l-4.1-4c-0.6-0.6-0.3-1.7,0.6-1.8l5.6-0.8c0.3,0,0.6-0.3,0.8-0.6L14.1,4.8z"/>
	<path class="st1" d="M13.8,4.7c0.5-1,1.9-1,2.3,0l2.5,5.1c0.1,0.2,0.3,0.4,0.6,0.4l5.6,0.8c1.1,0.2,1.5,1.5,0.7,2.2l-4.1,4
		c-0.2,0.2-0.3,0.4-0.2,0.7l1,5.6c0.2,1.1-0.9,1.9-1.9,1.4l-5-2.6c-0.2-0.1-0.5-0.1-0.7,0l-5,2.6c-1,0.5-2.1-0.3-1.9-1.4l1-5.6
		c0-0.3,0-0.5-0.2-0.7l-4.1-4C3.6,12.5,4,11.2,5.1,11l5.6-0.8c0.3,0,0.5-0.2,0.6-0.4L13.8,4.7z"/>
</g>
</svg>
